<svg width="1252" height="52" viewBox="0 0 1252 52" fill="none" xmlns="http://www.w3.org/2000/svg">
<path d="M136.791 20.9624C136.791 21.7103 136.89 22.3085 136.99 22.7572C137.139 23.2059 137.339 23.6546 137.638 24.203C137.738 24.3526 137.788 24.5022 137.788 24.6517C137.788 24.8512 137.688 25.0506 137.389 25.25L136.142 26.0975C135.943 26.1973 135.793 26.297 135.644 26.297C135.444 26.297 135.245 26.1973 135.046 25.9978C134.747 25.6987 134.547 25.3996 134.348 25.0506C134.148 24.7016 133.949 24.3526 133.749 23.854C132.204 25.6987 130.26 26.5961 127.867 26.5961C126.172 26.5961 124.875 26.0975 123.878 25.1503C122.881 24.203 122.383 22.9068 122.383 21.3114C122.383 19.6163 122.981 18.2204 124.178 17.2233C125.374 16.2262 127.019 15.6777 129.063 15.6777C129.761 15.6777 130.459 15.7276 131.157 15.8273C131.905 15.927 132.653 16.0766 133.45 16.276V14.8302C133.45 13.3345 133.151 12.2377 132.503 11.6395C131.855 11.0412 130.808 10.7421 129.263 10.7421C128.565 10.7421 127.867 10.8418 127.119 10.9913C126.371 11.1908 125.673 11.3902 124.975 11.6893C124.676 11.789 124.427 11.8887 124.277 11.9386C124.128 11.9386 124.028 11.9884 123.978 11.9884C123.679 11.9884 123.579 11.789 123.579 11.3902V10.3931C123.579 10.0939 123.629 9.84465 123.729 9.69509C123.829 9.54552 124.028 9.39595 124.277 9.29624C124.975 8.94725 125.823 8.64812 126.77 8.39884C127.767 8.14957 128.764 8 129.861 8C132.254 8 133.949 8.54841 135.095 9.59538C136.192 10.6922 136.741 12.2876 136.741 14.5311L136.791 20.9624ZM128.714 24.0036C129.362 24.0036 130.06 23.9039 130.758 23.6546C131.456 23.4053 132.104 22.9566 132.653 22.3584C132.952 21.9595 133.201 21.5607 133.351 21.0621C133.45 20.5636 133.55 20.0152 133.55 19.3172V18.4697C132.952 18.3201 132.354 18.2204 131.705 18.1207C131.057 18.021 130.459 18.021 129.811 18.021C128.465 18.021 127.518 18.2702 126.82 18.8186C126.172 19.367 125.823 20.1149 125.823 21.112C125.823 22.0592 126.072 22.7572 126.571 23.2059C127.069 23.8042 127.767 24.0036 128.714 24.0036ZM144.717 26.1973C144.368 26.1973 144.119 26.1474 143.969 25.9978C143.82 25.8981 143.67 25.599 143.571 25.2001L138.884 9.74494C138.785 9.3461 138.685 9.09682 138.685 8.94725C138.685 8.64812 138.835 8.4487 139.183 8.4487H141.128C141.527 8.4487 141.776 8.49855 141.925 8.64812C142.075 8.74783 142.225 9.04697 142.324 9.44581L145.664 22.6575L148.755 9.44581C148.855 9.04697 148.955 8.79769 149.154 8.64812C149.304 8.54841 149.603 8.4487 149.952 8.4487H151.547C151.946 8.4487 152.195 8.49855 152.345 8.64812C152.494 8.74783 152.644 9.04697 152.744 9.44581L155.884 22.8071L159.324 9.44581C159.424 9.04697 159.574 8.79769 159.723 8.64812C159.873 8.54841 160.122 8.4487 160.521 8.4487H162.365C162.665 8.4487 162.864 8.59827 162.864 8.94725C162.864 9.04697 162.864 9.14668 162.814 9.24639C162.814 9.3461 162.764 9.54552 162.665 9.74494L157.829 25.2001C157.729 25.599 157.579 25.8483 157.43 25.9978C157.28 26.0975 157.031 26.1973 156.682 26.1973H154.987C154.588 26.1973 154.339 26.1474 154.189 25.9978C154.04 25.8483 153.89 25.599 153.791 25.2001L150.7 12.3374L147.609 25.2001C147.509 25.599 147.409 25.8483 147.21 25.9978C147.06 26.1474 146.761 26.1973 146.412 26.1973H144.717ZM170.392 26.6958C169.345 26.6958 168.298 26.5961 167.301 26.3468C166.304 26.0975 165.506 25.8483 165.008 25.5491C164.709 25.3497 164.459 25.1503 164.409 25.0007C164.36 24.8512 164.26 24.6019 164.26 24.4523V23.4552C164.26 23.0564 164.409 22.8569 164.709 22.8569C164.808 22.8569 164.958 22.8569 165.058 22.9068C165.157 22.9566 165.357 23.0065 165.556 23.1062C166.254 23.4053 166.952 23.6546 167.75 23.8042C168.547 23.9538 169.345 24.0535 170.143 24.0535C171.389 24.0535 172.386 23.854 173.034 23.4053C173.732 22.9566 174.081 22.3085 174.081 21.5108C174.081 20.9624 173.882 20.5137 173.533 20.1149C173.184 19.716 172.486 19.4169 171.538 19.0679L168.647 18.1705C167.201 17.7218 166.104 17.0238 165.456 16.1264C164.808 15.229 164.459 14.2818 164.459 13.2348C164.459 12.3873 164.659 11.6394 165.008 11.0412C165.357 10.4429 165.855 9.84465 166.453 9.39595C167.052 8.94725 167.75 8.59827 168.547 8.34899C169.345 8.09971 170.192 8 171.04 8C171.489 8 171.937 8 172.386 8.09971C172.835 8.14957 173.283 8.24928 173.682 8.29913C174.081 8.39884 174.48 8.49855 174.829 8.59827C175.178 8.69798 175.477 8.84754 175.676 8.94725C175.975 9.09682 176.175 9.24639 176.275 9.44581C176.374 9.59538 176.474 9.84465 176.474 10.0939V11.0412C176.474 11.44 176.324 11.6893 176.025 11.6893C175.876 11.6893 175.626 11.5896 175.278 11.44C174.131 10.9415 172.885 10.6423 171.439 10.6423C170.292 10.6423 169.395 10.8418 168.797 11.1908C168.198 11.5397 167.849 12.138 167.849 12.9855C167.849 13.534 168.049 14.0325 168.448 14.3815C168.846 14.7803 169.594 15.1293 170.641 15.4783L173.483 16.3757C174.929 16.8244 175.975 17.4725 176.574 18.2702C177.172 19.0679 177.471 20.0152 177.471 21.0621C177.471 21.9097 177.272 22.7074 176.973 23.3555C176.624 24.0535 176.125 24.6517 175.527 25.1004C174.929 25.599 174.181 25.948 173.333 26.1973C172.336 26.5961 171.389 26.6958 170.392 26.6958Z" fill="#252F3E"/>
<path fill-rule="evenodd" clip-rule="evenodd" d="M174.179 36.4162C167.598 41.2522 158.026 43.8447 149.85 43.8447C138.334 43.8447 127.964 39.607 120.137 32.5275C119.539 31.9791 120.087 31.2312 120.835 31.6301C129.31 36.5658 139.73 39.5072 150.548 39.5072C157.827 39.5072 165.853 38.0116 173.231 34.8707C174.278 34.422 175.225 35.6185 174.179 36.4162Z" fill="#FF9900"/>
<path fill-rule="evenodd" clip-rule="evenodd" d="M176.871 33.3259C176.023 32.229 171.337 32.8273 169.193 33.0766C168.545 33.1763 168.445 32.578 169.044 32.1792C172.783 29.5368 178.965 30.2847 179.663 31.1821C180.361 32.0795 179.463 38.2616 175.973 41.203C175.425 41.6517 174.926 41.4024 175.176 40.8042C175.973 38.81 177.718 34.3728 176.871 33.3259Z" fill="#FF9900"/>
<path fill-rule="evenodd" clip-rule="evenodd" d="M272.71 35.9219L261.795 15.9219L250.881 35.9219H272.71ZM283.719 35.0115L292.84 16.831H288.895L282.603 30.0343L276.311 16.831H272.365L281.487 35.0115H283.719ZM345.881 16.831V35.0115H342.615V16.831H345.881ZM327.7 28.2257C327.7 26.8088 327.98 25.5627 328.542 24.4872C329.103 23.4117 329.886 22.5838 330.889 22.0034C331.893 21.423 333.067 21.1328 334.411 21.1328C335.601 21.1328 336.673 21.4059 337.626 21.9522C338.579 22.4985 339.336 23.3093 339.897 24.3848C340.458 25.4603 340.748 26.7747 340.765 28.3282V29.122H331.145C331.212 30.2486 331.527 31.1363 332.088 31.785C332.667 32.4167 333.441 32.7324 334.411 32.7324C335.023 32.7324 335.585 32.5618 336.095 32.2203C336.605 31.8789 336.988 31.418 337.243 30.8376L340.586 31.0937C340.178 32.3739 339.412 33.3982 338.289 34.1664C337.166 34.9346 335.874 35.3187 334.411 35.3187C333.067 35.3187 331.893 35.0285 330.889 34.4481C329.886 33.8677 329.103 33.0397 328.542 31.9643C327.98 30.8888 327.7 29.6426 327.7 28.2257ZM337.396 26.9454C337.277 25.8358 336.945 25.025 336.401 24.5128C335.856 23.9836 335.193 23.719 334.411 23.719C333.509 23.719 332.778 24.0007 332.216 24.564C331.655 25.1274 331.306 25.9212 331.17 26.9454H337.396ZM322.188 24.5128C322.733 24.9737 323.073 25.6139 323.209 26.4333L326.577 26.254C326.458 25.2127 326.109 24.308 325.531 23.5398C324.952 22.7716 324.204 22.1827 323.285 21.7729C322.384 21.3461 321.389 21.1328 320.3 21.1328C318.956 21.1328 317.782 21.423 316.778 22.0034C315.775 22.5838 314.992 23.4117 314.431 24.4872C313.869 25.5627 313.589 26.8088 313.589 28.2257C313.589 29.6426 313.869 30.8888 314.431 31.9643C314.992 33.0397 315.775 33.8677 316.778 34.4481C317.782 35.0285 318.956 35.3187 320.3 35.3187C321.422 35.3187 322.443 35.1053 323.362 34.6785C324.281 34.2347 325.029 33.6116 325.607 32.8092C326.186 32.0069 326.534 31.068 326.654 29.9926L323.26 29.8389C323.141 30.7437 322.809 31.4436 322.265 31.9386C321.72 32.4166 321.065 32.6556 320.3 32.6556C319.245 32.6556 318.428 32.2715 317.85 31.5033C317.272 30.7352 316.983 29.6426 316.983 28.2257C316.983 26.8088 317.272 25.7163 317.85 24.9481C318.428 24.1799 319.245 23.7959 320.3 23.7959C321.031 23.7959 321.66 24.0348 322.188 24.5128ZM305.619 21.4394H308.659L308.746 24.0515C308.962 23.3121 309.262 22.738 309.646 22.329C310.203 21.736 310.98 21.4394 311.977 21.4394H313.218V24.2352H311.951C311.242 24.2352 310.66 24.3369 310.203 24.5402C309.764 24.7435 309.427 25.0654 309.19 25.506C308.971 25.9465 308.861 26.5057 308.861 27.1834V35.0115H305.619V21.4394ZM291.599 24.4872C291.037 25.5627 290.757 26.8088 290.757 28.2257C290.757 29.6426 291.037 30.8888 291.599 31.9643C292.16 33.0397 292.943 33.8677 293.946 34.4481C294.95 35.0285 296.124 35.3187 297.468 35.3187C298.931 35.3187 300.224 34.9346 301.346 34.1664C302.47 33.3982 303.235 32.3739 303.643 31.0937L300.3 30.8376C300.045 31.418 299.663 31.8789 299.152 32.2203C298.642 32.5618 298.08 32.7324 297.468 32.7324C296.498 32.7324 295.724 32.4167 295.146 31.785C294.584 31.1363 294.27 30.2486 294.202 29.122H303.822V28.3282C303.805 26.7747 303.516 25.4603 302.954 24.3848C302.393 23.3093 301.636 22.4985 300.683 21.9522C299.731 21.4059 298.659 21.1328 297.468 21.1328C296.124 21.1328 294.95 21.423 293.946 22.0034C292.943 22.5838 292.16 23.4117 291.599 24.4872ZM299.458 24.5128C300.002 25.025 300.335 25.8358 300.454 26.9454H294.227C294.363 25.9212 294.712 25.1274 295.273 24.564C295.835 24.0007 296.566 23.719 297.468 23.719C298.25 23.719 298.914 23.9836 299.458 24.5128Z" fill="black"/>
<path d="M426.358 13.2205C425.114 11.7468 424.043 10.25 423.836 9.93915C423.812 9.91612 423.778 9.91612 423.755 9.93915C423.536 10.25 422.465 11.7468 421.221 13.2205C410.556 26.818 422.903 35.9943 422.903 35.9943L423.006 36.0634C423.098 37.4795 423.329 39.5174 423.329 39.5174H423.789H424.25C424.25 39.5174 424.48 37.4911 424.573 36.0634L424.676 35.9828C424.676 35.9943 437.023 26.818 426.358 13.2205ZM423.789 35.787C423.789 35.787 423.237 35.315 423.087 35.0732V35.0502L423.755 20.2438C423.755 20.1977 423.824 20.1977 423.824 20.2438L424.48 35.0502V35.0732C424.331 35.315 423.789 35.787 423.789 35.787Z" fill="#001E2B"/>
<path d="M446.883 32.7716L441.735 20.2103L441.723 20.1758H437.727V21.0163H438.371C438.567 21.0163 438.752 21.0969 438.89 21.235C439.028 21.3732 439.097 21.5574 439.097 21.7531L438.982 34.395C438.982 34.7865 438.659 35.1088 438.268 35.1204L437.611 35.1434V35.9724H441.504V35.1434L441.101 35.1319C440.71 35.1204 440.387 34.798 440.387 34.4065V22.49L445.996 35.9724C446.077 36.1681 446.261 36.2947 446.468 36.2947C446.676 36.2947 446.86 36.1681 446.94 35.9724L452.423 22.7894L452.503 34.395C452.503 34.798 452.181 35.1204 451.778 35.1319H451.363V35.9608H455.924V35.1434H455.302C454.91 35.1434 454.588 34.8095 454.576 34.418L454.542 21.7762C454.542 21.3732 454.864 21.0508 455.256 21.0393L455.924 21.0278V20.1758H452.031L446.883 32.7716Z" fill="#001E2B"/>
<path d="M482.748 34.9109C482.622 34.7843 482.553 34.6116 482.553 34.4043V28.1985C482.553 27.0126 482.207 26.0915 481.516 25.4353C480.836 24.779 479.88 24.4336 478.706 24.4336C477.047 24.4336 475.746 25.1014 474.836 26.4254C474.824 26.4485 474.79 26.46 474.755 26.46C474.721 26.46 474.698 26.437 474.698 26.4024L474.272 24.7445H473.546L471.703 25.8037V26.3794H472.175C472.394 26.3794 472.578 26.4369 472.705 26.5521C472.832 26.6672 472.901 26.8399 472.901 27.0817V34.3928C472.901 34.6001 472.832 34.7728 472.705 34.8994C472.578 35.0261 472.406 35.0951 472.198 35.0951H471.738V35.9356H475.965V35.0951H475.504C475.297 35.0951 475.124 35.0261 474.997 34.8994C474.87 34.7728 474.801 34.6001 474.801 34.3928V29.5456C474.801 28.9354 474.94 28.3137 475.193 27.715C475.458 27.1278 475.849 26.6212 476.368 26.2412C476.886 25.8613 477.508 25.6771 478.233 25.6771C479.04 25.6771 479.65 25.9304 480.042 26.4369C480.422 26.9435 480.618 27.6113 480.618 28.3943V34.3698C480.618 34.577 480.548 34.7497 480.422 34.8764C480.295 35.003 480.122 35.0721 479.915 35.0721H479.454V35.9126H483.681V35.0721H483.221C483.048 35.1182 482.887 35.0491 482.748 34.9109Z" fill="#001E2B"/>
<path d="M521.398 21.1199C520.235 20.4982 518.922 20.1758 517.517 20.1758H512.012V21.0163H512.553C512.76 21.0163 512.945 21.0969 513.129 21.2811C513.302 21.4538 513.394 21.6495 513.394 21.8568V34.2684C513.394 34.4756 513.302 34.6713 513.129 34.844C512.956 35.0167 512.76 35.1088 512.553 35.1088H512.012V35.9493H517.517C518.922 35.9493 520.235 35.627 521.41 35.0052C522.585 34.3835 523.529 33.4624 524.22 32.288C524.911 31.1136 525.268 29.6975 525.268 28.0741C525.268 26.4622 524.911 25.0575 524.22 23.8601C523.518 22.6627 522.573 21.7531 521.398 21.1199ZM523.045 28.051C523.045 29.5248 522.78 30.7682 522.262 31.7699C521.744 32.7716 521.053 33.52 520.212 34.0035C519.36 34.4871 518.427 34.7289 517.413 34.7289H516.296C516.089 34.7289 515.905 34.6483 515.72 34.4641C515.548 34.2914 515.455 34.0957 515.455 33.8884V22.1907C515.455 21.9834 515.536 21.7992 515.72 21.615C515.893 21.4423 516.089 21.3502 516.296 21.3502H517.413C518.427 21.3502 519.36 21.5919 520.212 22.0755C521.064 22.5591 521.744 23.3075 522.262 24.3091C522.78 25.3338 523.045 26.5888 523.045 28.051Z" fill="#001E2B"/>
<path d="M538.273 28.8917C537.766 28.3045 536.788 27.8095 535.624 27.5447C537.214 26.7502 538.043 25.6334 538.043 24.1942C538.043 23.4113 537.836 22.709 537.421 22.1103C537.006 21.5116 536.419 21.028 535.67 20.6941C534.922 20.3602 534.035 20.1875 533.044 20.1875H526.813V21.028H527.309C527.516 21.028 527.7 21.1086 527.885 21.2928C528.057 21.4655 528.149 21.6612 528.149 21.8685V34.2801C528.149 34.4873 528.057 34.6831 527.885 34.8558C527.712 35.0285 527.516 35.1206 527.309 35.1206H526.756V35.9611H533.517C534.542 35.9611 535.509 35.7884 536.373 35.4429C537.237 35.0975 537.939 34.5909 538.434 33.9232C538.941 33.2554 539.195 32.4379 539.195 31.4938C539.183 30.4576 538.884 29.5941 538.273 28.8917ZM530.511 34.4873C530.338 34.3146 530.246 34.1189 530.246 33.9116V28.3391H533.459C534.588 28.3391 535.463 28.6269 536.062 29.2026C536.661 29.7783 536.96 30.5267 536.96 31.4477C536.96 32.0004 536.822 32.5415 536.569 33.0366C536.304 33.5432 535.912 33.9462 535.382 34.2571C534.864 34.5679 534.219 34.7291 533.459 34.7291H531.086C530.879 34.7406 530.695 34.66 530.511 34.4873ZM530.257 27.1532V22.2024C530.257 21.9951 530.338 21.8109 530.522 21.6267C530.695 21.454 530.891 21.3619 531.098 21.3619H532.618C533.712 21.3619 534.53 21.6382 535.037 22.1678C535.544 22.709 535.797 23.3998 535.797 24.2518C535.797 25.1268 535.555 25.8291 535.083 26.3588C534.611 26.8769 533.897 27.1417 532.941 27.1417H530.257V27.1532Z" fill="#001E2B"/>
<path d="M466.636 25.1705C465.749 24.6869 464.77 24.4336 463.699 24.4336C462.628 24.4336 461.637 24.6754 460.762 25.1705C459.875 25.654 459.184 26.3564 458.666 27.2429C458.148 28.1179 457.883 29.1541 457.883 30.3055C457.883 31.4569 458.148 32.4931 458.666 33.3681C459.184 34.2546 459.887 34.957 460.762 35.4405C461.649 35.9241 462.628 36.1774 463.699 36.1774C464.77 36.1774 465.761 35.9356 466.636 35.4405C467.523 34.957 468.214 34.2546 468.732 33.3681C469.25 32.4816 469.515 31.4453 469.515 30.3055C469.515 29.1657 469.25 28.1179 468.732 27.2429C468.214 26.3564 467.523 25.654 466.636 25.1705ZM467.488 30.3055C467.488 31.7217 467.143 32.873 466.452 33.6905C465.772 34.5195 464.851 34.9455 463.699 34.9455C462.547 34.9455 461.626 34.5195 460.946 33.6905C460.255 32.8615 459.91 31.7102 459.91 30.3055C459.91 28.9008 460.255 27.738 460.946 26.9205C461.626 26.0915 462.547 25.6655 463.699 25.6655C464.851 25.6655 465.772 26.0915 466.452 26.9205C467.143 27.738 467.488 28.8893 467.488 30.3055Z" fill="#001E2B"/>
<path d="M507.29 25.1705C506.403 24.6869 505.425 24.4336 504.353 24.4336C503.282 24.4336 502.292 24.6754 501.416 25.1705C500.53 25.654 499.839 26.3564 499.32 27.2429C498.802 28.1294 498.537 29.1541 498.537 30.3055C498.537 31.4569 498.802 32.4931 499.32 33.3681C499.839 34.2431 500.541 34.957 501.416 35.4405C502.303 35.9241 503.282 36.1774 504.353 36.1774C505.425 36.1774 506.415 35.9356 507.29 35.4405C508.177 34.957 508.868 34.2546 509.386 33.3681C509.905 32.4816 510.17 31.4569 510.17 30.3055C510.17 29.1541 509.905 28.1179 509.386 27.2429C508.868 26.3679 508.166 25.654 507.29 25.1705ZM508.143 30.3055C508.143 31.7217 507.797 32.873 507.106 33.6905C506.427 34.5195 505.505 34.9455 504.353 34.9455C503.202 34.9455 502.28 34.5195 501.601 33.6905C500.91 32.8615 500.564 31.7102 500.564 30.3055C500.564 28.8778 500.91 27.738 501.601 26.9205C502.28 26.0915 503.202 25.6655 504.353 25.6655C505.505 25.6655 506.427 26.0915 507.106 26.9205C507.786 27.738 508.143 28.8893 508.143 30.3055Z" fill="#001E2B"/>
<path d="M490.891 24.4336C489.969 24.4336 489.128 24.6293 488.357 25.0208C487.597 25.4122 486.998 25.9419 486.572 26.6212C486.145 27.289 485.927 28.0373 485.927 28.8433C485.927 29.5571 486.088 30.2134 486.422 30.8006C486.744 31.3647 487.182 31.8368 487.735 32.2283L486.088 34.4734C485.881 34.7497 485.858 35.1182 486.007 35.4175C486.169 35.7284 486.468 35.9126 486.814 35.9126H487.286C486.825 36.2235 486.456 36.5919 486.203 37.0294C485.904 37.5245 485.754 38.0426 485.754 38.5722C485.754 39.5624 486.192 40.3799 487.055 41.0016C487.908 41.6118 489.117 41.9227 490.626 41.9227C491.674 41.9227 492.687 41.75 493.597 41.4161C494.519 41.0822 495.267 40.5871 495.832 39.9423C496.396 39.2976 496.684 38.5147 496.684 37.6051C496.684 36.661 496.338 35.9932 495.532 35.3369C494.841 34.7958 493.758 34.5079 492.399 34.5079H487.781C487.769 34.5079 487.758 34.4964 487.758 34.4964C487.758 34.4964 487.746 34.4734 487.758 34.4619L488.956 32.85C489.278 32.9997 489.578 33.0918 489.843 33.1493C490.119 33.2069 490.43 33.2299 490.775 33.2299C491.743 33.2299 492.63 33.0342 493.39 32.6428C494.15 32.2513 494.761 31.7217 495.21 31.0424C495.647 30.3746 495.866 29.6262 495.866 28.8318C495.866 27.9798 495.452 26.4139 494.323 25.6195C494.323 25.608 494.334 25.608 494.334 25.608L496.822 25.8843V24.7445H492.849C492.215 24.5487 491.57 24.4336 490.891 24.4336ZM492.284 31.6641C491.847 31.8944 491.374 32.021 490.902 32.021C490.131 32.021 489.451 31.7447 488.864 31.2036C488.288 30.6624 488 29.868 488 28.8433C488 27.8186 488.288 27.0357 488.864 26.483C489.439 25.9419 490.119 25.6655 490.902 25.6655C491.386 25.6655 491.847 25.7807 492.284 26.0225C492.722 26.2527 493.079 26.6097 493.367 27.0817C493.643 27.5538 493.793 28.141 493.793 28.8318C493.793 29.5341 493.655 30.1213 493.367 30.5818C493.09 31.0769 492.722 31.4338 492.284 31.6641ZM489.152 35.9126H492.284C493.148 35.9126 493.701 36.0853 494.069 36.4537C494.438 36.8222 494.622 37.3172 494.622 37.8929C494.622 38.7334 494.288 39.4242 493.62 39.9423C492.952 40.4604 492.054 40.7253 490.937 40.7253C489.969 40.7253 489.163 40.5065 488.564 40.092C487.977 39.6775 487.677 39.0443 487.677 38.2383C487.677 37.7317 487.816 37.2597 488.092 36.8452C488.38 36.4307 488.714 36.1314 489.152 35.9126Z" fill="#001E2B"/>
<path d="M541.534 35.751C541.304 35.6244 541.131 35.4401 540.993 35.2329C540.866 35.0026 540.797 34.7724 540.797 34.5076C540.797 34.2427 540.866 34.001 540.993 33.7822C541.119 33.5519 541.304 33.3907 541.534 33.2641C541.764 33.1374 542.018 33.0684 542.306 33.0684C542.594 33.0684 542.847 33.1374 543.077 33.2641C543.308 33.3907 543.48 33.575 543.619 33.7822C543.745 34.0125 543.814 34.2427 543.814 34.5076C543.814 34.7724 543.745 35.0141 543.619 35.2329C543.492 35.4632 543.308 35.6244 543.077 35.751C542.847 35.8777 542.594 35.9467 542.306 35.9467C542.029 35.9467 541.764 35.8892 541.534 35.751ZM542.951 35.5898C543.146 35.4862 543.285 35.325 543.4 35.1523C543.503 34.9566 543.561 34.7493 543.561 34.5076C543.561 34.2658 543.503 34.0585 543.4 33.8628C543.296 33.6671 543.146 33.5174 542.951 33.4253C542.755 33.3217 542.548 33.2641 542.306 33.2641C542.064 33.2641 541.856 33.3217 541.661 33.4253C541.465 33.5289 541.327 33.6901 541.211 33.8628C541.108 34.0585 541.05 34.2658 541.05 34.5076C541.05 34.7493 541.108 34.9566 541.211 35.1523C541.315 35.348 541.465 35.4977 541.661 35.5898C541.856 35.6934 542.064 35.751 542.306 35.751C542.548 35.751 542.766 35.6934 542.951 35.5898ZM541.684 35.1984V35.0947L541.707 35.0832H541.776C541.799 35.0832 541.822 35.0717 541.833 35.0602C541.856 35.0372 541.856 35.0257 541.856 35.0026V33.9434C541.856 33.9204 541.845 33.8973 541.833 33.8858C541.81 33.8628 541.799 33.8628 541.776 33.8628H541.707L541.684 33.8513V33.7592L541.707 33.7477H542.306C542.478 33.7477 542.605 33.7822 542.709 33.8628C542.812 33.9434 542.858 34.047 542.858 34.1852C542.858 34.2888 542.824 34.3924 542.743 34.4615C542.663 34.5421 542.571 34.5881 542.455 34.5997L542.594 34.6457L542.858 35.0602C542.882 35.0947 542.905 35.1063 542.939 35.1063H543.008L543.02 35.1178V35.2214L543.008 35.2329H542.651L542.628 35.2214L542.26 34.6112H542.167V35.0141C542.167 35.0372 542.179 35.0602 542.19 35.0717C542.214 35.0947 542.225 35.0947 542.248 35.0947H542.317L542.34 35.1063V35.2099L542.317 35.2214H541.707L541.684 35.1984ZM542.271 34.45C542.363 34.45 542.444 34.427 542.49 34.3694C542.536 34.3233 542.571 34.2427 542.571 34.1506C542.571 34.0585 542.548 33.9894 542.501 33.9319C542.455 33.8743 542.386 33.8513 542.306 33.8513H542.26C542.237 33.8513 542.214 33.8628 542.202 33.8743C542.179 33.8973 542.179 33.9088 542.179 33.9319V34.4385H542.271V34.45Z" fill="#001E2B"/>
<path d="M824.832 32.249C824.171 32.249 823.646 31.724 823.646 31.063C823.646 30.4213 824.171 29.877 824.832 29.877C825.474 29.877 826.018 30.4019 826.018 31.063C826.018 31.724 825.474 32.249 824.832 32.249ZM824.832 30.1103C824.308 30.1103 823.88 30.538 823.88 31.063C823.88 31.5879 824.308 32.0156 824.832 32.0156C825.357 32.0156 825.785 31.5879 825.785 31.063C825.785 30.538 825.357 30.1103 824.832 30.1103ZM825.435 31.6851H825.163L824.93 31.2379H824.619V31.6851H824.366V30.3825H824.988C825.26 30.3825 825.435 30.5574 825.435 30.8102C825.435 31.0046 825.319 31.1407 825.163 31.1991L825.435 31.6851ZM824.969 31.0046C825.066 31.0046 825.163 30.9463 825.163 30.8102C825.163 30.6547 825.085 30.6158 824.969 30.6158H824.58V31.0046H824.969Z" fill="#404041"/>
<path d="M701.275 29.7637H704.308V38.0268H709.577V40.671H701.275V29.7637Z" fill="#404041"/>
<path d="M712.709 35.2436V35.2241C712.709 32.0939 715.237 29.5469 718.6 29.5469C721.964 29.5469 724.452 32.055 724.452 35.1852V35.2241C724.452 38.3544 721.925 40.9014 718.561 40.9014C715.217 40.8819 712.709 38.3738 712.709 35.2436ZM721.38 35.2436V35.2241C721.38 33.6493 720.253 32.2883 718.581 32.2883C716.928 32.2883 715.82 33.6298 715.82 35.2047V35.2436C715.82 36.8184 716.947 38.1794 718.6 38.1794C720.272 38.16 721.38 36.8184 721.38 35.2436Z" fill="#404041"/>
<path d="M728.164 35.8881V29.7637H731.236V35.8298C731.236 37.4046 732.033 38.1435 733.239 38.1435C734.444 38.1435 735.241 37.4241 735.241 35.9075V29.7637H738.313V35.8103C738.313 39.3295 736.311 40.8654 733.2 40.8654C730.108 40.8849 728.164 39.31 728.164 35.8881Z" fill="#404041"/>
<path d="M742.941 29.7637H747.16C751.049 29.7637 753.324 31.9996 753.324 35.1493V35.1882C753.324 38.3379 751.03 40.671 747.102 40.671H742.961L742.941 29.7637ZM747.199 37.9879C749.008 37.9879 750.213 36.9963 750.213 35.2271V35.1882C750.213 33.4383 749.008 32.4273 747.199 32.4273H745.974V37.9685L747.199 37.9879Z" fill="#404041"/>
<path d="M757.699 29.7637H766.429V32.4273H760.713V34.2744H765.885V36.7825H760.713V40.671H757.699V29.7637Z" fill="#404041"/>
<path d="M770.627 29.7637H773.641V38.0268H778.929V40.671H770.627V29.7637Z" fill="#404041"/>
<path d="M786.823 29.6855H789.739L794.386 40.6706H791.139L790.342 38.7264H786.142L785.364 40.6706H782.195L786.823 29.6855ZM789.486 36.3738L788.281 33.2824L787.056 36.3738H789.486Z" fill="#404041"/>
<path d="M798.275 29.7637H803.428C805.1 29.7637 806.247 30.1914 806.986 30.9497C807.627 31.5718 807.958 32.4079 807.958 33.4967V33.5355C807.958 35.2076 807.063 36.3158 805.722 36.8797L808.327 40.6904H804.828L802.631 37.3852H801.308V40.6904H798.295L798.275 29.7637ZM803.292 35.0132C804.322 35.0132 804.905 34.5077 804.905 33.73V33.6716C804.905 32.8162 804.283 32.3884 803.272 32.3884H801.289V35.0132H803.292Z" fill="#404041"/>
<path d="M812.312 29.7637H821.081V32.3495H815.307V33.9827H820.537V36.3742H815.307V38.1046H821.159V40.671H812.312V29.7637Z" fill="#404041"/>
<path d="M694.665 36.5268C694.237 37.4795 693.343 38.16 692.176 38.16C690.524 38.16 689.396 36.7795 689.396 35.2241V35.1852C689.396 33.6104 690.504 32.2688 692.157 32.2688C693.401 32.2688 694.354 33.0271 694.743 34.077H697.931C697.426 31.4717 695.132 29.5469 692.176 29.5469C688.813 29.5469 686.285 32.0939 686.285 35.2241V35.263C686.285 38.3933 688.774 40.9014 692.137 40.9014C695.015 40.9014 697.27 39.0349 697.854 36.5462L694.665 36.5268Z" fill="#404041"/>
<path d="M675.632 28.7332L667.291 23.9503L665.852 23.3281L631.73 23.5809V40.8848L675.632 40.9043V28.7332Z" fill="white"/>
<path d="M660.446 39.3081C660.855 37.9083 660.699 36.625 660.019 35.6724C659.396 34.7974 658.347 34.2919 657.083 34.2336L633.149 33.9225C632.993 33.9225 632.857 33.8448 632.779 33.7281C632.702 33.6114 632.682 33.4559 632.721 33.3004C632.799 33.067 633.032 32.8921 633.285 32.8726L657.433 32.5615C660.291 32.4254 663.402 30.1118 664.49 27.2731L665.871 23.6763C665.929 23.5207 665.949 23.3652 665.91 23.2096C664.354 16.1714 658.074 10.9219 650.569 10.9219C643.648 10.9219 637.776 15.3937 635.676 21.5959C634.315 20.5849 632.585 20.0405 630.719 20.2155C627.394 20.546 624.73 23.2096 624.4 26.5343C624.322 27.3898 624.38 28.2258 624.575 29.0035C619.15 29.1591 614.814 33.592 614.814 39.0554C614.814 39.5414 614.853 40.0275 614.912 40.5136C614.951 40.7469 615.145 40.9219 615.378 40.9219H659.552C659.805 40.9219 660.038 40.7469 660.116 40.4941L660.446 39.3081Z" fill="#F38020"/>
<path d="M668.069 23.9297C667.855 23.9297 667.622 23.9297 667.408 23.9491C667.253 23.9491 667.117 24.0658 667.058 24.2213L666.125 27.4683C665.717 28.8681 665.872 30.1513 666.553 31.104C667.175 31.9789 668.225 32.4845 669.489 32.5428L674.583 32.8539C674.738 32.8539 674.874 32.9316 674.952 33.0483C675.03 33.1649 675.049 33.3399 675.01 33.476C674.932 33.7093 674.699 33.8843 674.446 33.9038L669.139 34.2148C666.261 34.3509 663.17 36.6646 662.081 39.5032L661.692 40.4948C661.614 40.6892 661.75 40.8837 661.964 40.8837H680.201C680.415 40.8837 680.61 40.7476 680.668 40.5337C680.979 39.406 681.154 38.22 681.154 36.9951C681.154 29.7819 675.302 23.9297 668.069 23.9297Z" fill="#FAAE40"/>
<g clip-path="url(#clip0_11283_48681)">
<path d="M906.795 13.5488C901.418 13.5488 897.02 17.9623 897.02 23.3565C897.02 28.7507 901.418 33.1642 906.795 33.1642C912.171 33.1642 916.57 28.778 916.57 23.3565C916.57 17.935 912.198 13.5488 906.795 13.5488ZM906.795 29.6498C903.455 29.6498 900.767 26.8982 900.767 23.3565C900.767 19.8148 903.455 17.0632 906.795 17.0632C910.134 17.0632 912.822 19.8148 912.822 23.3565C912.822 26.8982 910.134 29.6498 906.795 29.6498Z" fill="black"/>
<path d="M926.452 18.998C924.687 18.998 922.977 19.7064 922.081 20.9051V19.2705H918.551V38.341H922.081V31.4484C922.977 32.5654 924.633 33.1647 926.452 33.1647C930.254 33.1647 933.24 30.1679 933.24 26.0814C933.24 21.9948 930.254 18.998 926.452 18.998ZM925.855 30.0862C923.846 30.0862 922.053 28.5061 922.053 26.0814C922.053 23.6567 923.846 22.0766 925.855 22.0766C927.864 22.0766 929.656 23.6567 929.656 26.0814C929.656 28.5061 927.864 30.0862 925.855 30.0862Z" fill="black"/>
<path d="M941.551 18.998C937.695 18.998 934.654 22.0221 934.654 26.0814C934.654 30.1407 937.315 33.1647 941.66 33.1647C945.217 33.1647 947.498 31.0125 948.204 28.5878H944.755C944.321 29.5958 943.099 30.3041 941.633 30.3041C939.813 30.3041 938.429 29.0237 938.103 27.1984H948.366V25.8089C948.366 22.1038 945.787 18.998 941.551 18.998ZM938.13 24.692C938.51 22.9756 939.922 21.8586 941.633 21.8586C943.452 21.8586 944.837 23.0573 945 24.692H938.13Z" fill="black"/>
<path d="M957.76 18.998C956.185 18.998 954.528 19.7064 953.768 20.8779V19.2705H950.238V32.8923H953.768V25.5638C953.768 23.4388 954.909 22.0493 956.755 22.0493C958.466 22.0493 959.389 23.357 959.389 25.1823V32.8923H962.919V24.6102C962.919 21.232 960.855 18.998 957.76 18.998Z" fill="black"/>
<path d="M971.96 13.8223L964.275 32.8928H968.05L969.679 28.7245H978.422L980.051 32.8928H983.88L976.25 13.8223H971.96ZM970.901 25.5643L974.05 17.5819L977.173 25.5643H970.901Z" fill="black"/>
<path d="M988.903 13.8223H985.318V32.8928H988.903V13.8223Z" fill="black"/>
</g>
<path fill-rule="evenodd" clip-rule="evenodd" d="M1132.12 26.4224C1132.12 21.2955 1129.64 17.25 1124.89 17.25C1120.12 17.25 1117.24 21.2955 1117.24 26.3823C1117.24 32.4105 1120.64 35.4546 1125.53 35.4546C1127.91 35.4546 1129.72 34.9138 1131.08 34.1528V30.1474C1129.72 30.8283 1128.15 31.2489 1126.17 31.2489C1124.23 31.2489 1122.51 30.568 1122.29 28.2048H1132.08C1132.08 27.9444 1132.12 26.903 1132.12 26.4224ZM1122.23 24.5198C1122.23 22.2568 1123.61 21.3155 1124.87 21.3155C1126.09 21.3155 1127.39 22.2568 1127.39 24.5198H1122.23Z" fill="#0A2540"/>
<path fill-rule="evenodd" clip-rule="evenodd" d="M1109.51 17.25C1107.54 17.25 1106.28 18.1712 1105.58 18.8121L1105.32 17.5704H1100.91V40.922L1105.92 39.8605L1105.94 34.1929C1106.66 34.7136 1107.72 35.4546 1109.49 35.4546C1113.07 35.4546 1116.33 32.5707 1116.33 26.2221C1116.31 20.4143 1113.01 17.25 1109.51 17.25ZM1108.3 31.0486C1107.12 31.0486 1106.42 30.6281 1105.94 30.1074L1105.92 22.6773C1106.44 22.0965 1107.16 21.696 1108.3 21.696C1110.13 21.696 1111.39 23.7388 1111.39 26.3623C1111.39 29.0459 1110.15 31.0486 1108.3 31.0486Z" fill="#0A2540"/>
<path fill-rule="evenodd" clip-rule="evenodd" d="M1094.03 16.0688L1099.05 14.9874V10.9219L1094.03 11.9833V16.0688Z" fill="#0A2540"/>
<path d="M1099.05 17.5898H1094.03V35.1135H1099.05V17.5898Z" fill="#0A2540"/>
<path fill-rule="evenodd" clip-rule="evenodd" d="M1088.64 19.0738L1088.32 17.5918H1083.99V35.1154H1089V23.2394C1090.18 21.6973 1092.18 21.9777 1092.8 22.198V17.5918C1092.16 17.3515 1089.82 16.9109 1088.64 19.0738Z" fill="#0A2540"/>
<path fill-rule="evenodd" clip-rule="evenodd" d="M1078.63 13.2441L1073.74 14.2855L1073.72 30.3272C1073.72 33.2912 1075.94 35.4742 1078.91 35.4742C1080.55 35.4742 1081.75 35.1737 1082.41 34.8133V30.7478C1081.77 31.0081 1078.61 31.9294 1078.61 28.9654V21.8558H1082.41V17.59H1078.61L1078.63 13.2441Z" fill="#0A2540"/>
<path fill-rule="evenodd" clip-rule="evenodd" d="M1065.09 22.6773C1065.09 21.8963 1065.73 21.5959 1066.79 21.5959C1068.31 21.5959 1070.23 22.0565 1071.76 22.8776V18.1712C1070.09 17.5104 1068.45 17.25 1066.79 17.25C1062.72 17.25 1060.02 19.3729 1060.02 22.9177C1060.02 28.4451 1067.63 27.5639 1067.63 29.9471C1067.63 30.8684 1066.83 31.1688 1065.71 31.1688C1064.04 31.1688 1061.92 30.4879 1060.24 29.5666V34.3331C1062.1 35.1341 1063.98 35.4746 1065.71 35.4746C1069.87 35.4746 1072.74 33.4118 1072.74 29.827C1072.72 23.8589 1065.09 24.9204 1065.09 22.6773Z" fill="#0A2540"/>
<defs>
<clipPath id="clip0_11283_48681">
<rect width="92" height="25" fill="white" transform="translate(897.02 13.4219)"/>
</clipPath>
</defs>
</svg>